<svg viewBox="0 0 200 187" xmlns="http://www.w3.org/2000/svg" xmlns:xlink="http://www.w3.org/1999/xlink">
	<mask id="mask0" mask-type="alpha">
<path d="M184.11,57.96c-4.6-10.87-11.18-20.64-19.56-29.01s-18.14-14.96-29.01-19.56c-9.93-4.2-20.4-6.58-31.18-7.08V2.2H72.05
	H55.98H8.7v47.28v48.58h0.11c0.52,10.71,2.9,21.11,7.07,30.99c4.6,10.87,11.18,20.64,19.56,29.01s18.14,14.96,29.01,19.56
	c11.27,4.77,23.23,7.18,35.54,7.18c12.31,0,24.27-2.42,35.54-7.18c10.87-4.6,20.64-11.18,29.01-19.56s14.96-18.14,19.56-29.01
	c4.77-11.27,7.18-23.23,7.18-35.54C191.3,81.19,188.88,69.23,184.11,57.96z"/>
</mask>
    <g mask="url(#mask0)">
<path d="M184.11,57.96c-4.6-10.87-11.18-20.64-19.56-29.01s-18.14-14.96-29.01-19.56c-9.93-4.2-20.4-6.58-31.18-7.08V2.2H72.05
	H55.98H8.7v47.28v48.58h0.11c0.52,10.71,2.9,21.11,7.07,30.99c4.6,10.87,11.18,20.64,19.56,29.01s18.14,14.96,29.01,19.56
	c11.27,4.77,23.23,7.18,35.54,7.18c12.31,0,24.27-2.42,35.54-7.18c10.87-4.6,20.64-11.18,29.01-19.56s14.96-18.14,19.56-29.01
	c4.77-11.27,7.18-23.23,7.18-35.54C191.3,81.19,188.88,69.23,184.11,57.96z"/>
<image href=""/>
    </g>
</svg>